<svg xmlns="http://www.w3.org/2000/svg" version="1.1" xmlns:xlink="http://www.w3.org/1999/xlink" xmlns:svgjs="http://svgjs.dev/svgjs" width="2000" height="464" viewBox="0 0 2000 464"><g transform="matrix(1,0,0,1,-1.2121212121212466,-0.7095894893132879)"><svg viewBox="0 0 396 92" data-background-color="#ffffff" preserveAspectRatio="xMidYMid meet" height="464" width="2000" xmlns="http://www.w3.org/2000/svg" xmlns:xlink="http://www.w3.org/1999/xlink"><g id="tight-bounds" transform="matrix(1,0,0,1,0.2400000000000091,0.1406944677086699)"><svg viewBox="0 0 395.52 91.71861106458269" height="91.71861106458269" width="395.52"><g><svg viewBox="0 0 756.2986593702002 175.38092280400662" height="91.71861106458269" width="395.52"><g><rect width="9.250714221081651" height="123.09525428027901" x="327.3114157745593" y="26.142834261863804" fill="#2b2b2b" opacity="1" stroke-width="0" stroke="transparent" fill-opacity="1" class="rect-qz-0" data-fill-palette-color="primary" rx="1%" id="qz-0" data-palette-color="#2b2b2b"></rect></g><g transform="matrix(1,0,0,1,360.7786593702002,36.40077211855372)"><svg viewBox="0 0 395.52 102.57937856689918" height="102.57937856689918" width="395.52"><g id="textblocktransform"><svg viewBox="0 0 395.52 102.57937856689918" height="102.57937856689918" width="395.52" id="textblock"><g><svg viewBox="0 0 395.52 102.57937856689918" height="102.57937856689918" width="395.52"><g transform="matrix(1,0,0,1,0,0)"><svg width="395.52" viewBox="2.6 -40.45 157.69 40.900000000000006" height="102.57937856689918" data-palette-color="#2b2b2b"><path d="M9.2-27.9L9.2-2.1Q9.2 0.3 6.45 0.3L6.45 0.3Q3.65 0.3 3.65-2.1L3.65-2.1 3.65-27.9Q3.65-30.3 6.45-30.3L6.45-30.3Q9.2-30.3 9.2-27.9L9.2-27.9ZM10.25-36.6L10.25-36.6Q10.25-35 9.15-33.9 8.05-32.8 6.45-32.8L6.45-32.8Q4.85-32.8 3.73-33.9 2.6-35 2.6-36.6L2.6-36.6Q2.6-38.25 3.73-39.35 4.85-40.45 6.45-40.45L6.45-40.45Q8.05-40.45 9.15-39.35 10.25-38.25 10.25-36.6ZM40.75-1.2L29.75-34.8 18.8-1.2 18.8-1.25Q18.5-0.5 17.97-0.03 17.45 0.45 16.7 0.45L16.7 0.45Q16.3 0.45 15.92 0.38 15.55 0.3 15.15 0.2L15.15 0.2 15.2 0.2Q12.35-0.7 13.1-3L13.1-3 24.5-37.65Q24.75-38.45 25.37-39 26-39.55 26.85-39.65L26.85-39.65Q27.7-39.8 28.5-39.88 29.3-39.95 29.75-39.95L29.75-39.95Q30.2-39.95 31-39.88 31.8-39.8 32.65-39.7L32.65-39.7Q33.35-39.6 34.02-38.95 34.7-38.3 35.05-37.65L35.05-37.65Q37.85-29.05 40.72-20.33 43.6-11.6 46.4-3L46.4-3Q47.1-0.7 44.3 0.2L44.3 0.2Q43.9 0.3 43.57 0.38 43.25 0.45 42.85 0.45L42.85 0.45Q42.15 0.45 41.57-0.03 41-0.5 40.75-1.25L40.75-1.25 40.75-1.2ZM33.5-12L33.5-12Q33.5-10.4 32.37-9.28 31.25-8.15 29.65-8.15L29.65-8.15Q28.05-8.15 26.95-9.28 25.85-10.4 25.85-12L25.85-12Q25.85-13.6 26.95-14.73 28.05-15.85 29.65-15.85L29.65-15.85Q31.25-15.85 32.37-14.73 33.5-13.6 33.5-12ZM55.95-21.75L55.95-2.1Q55.95 0.3 53.2 0.3L53.2 0.3Q50.45 0.3 50.45-2.1L50.45-2.1 50.45-22.2Q50.45-24.25 51.1-25.75 51.75-27.25 53.15-28.2L53.15-28.2Q55.8-30.1 58.45-30.1L58.45-30.1 66.5-30.1Q69.05-30.1 71.8-28.2L71.8-28.2Q74.5-26.3 74.5-22.2L74.5-22.2 74.5-2.1Q74.5 0.3 71.75 0.3L71.75 0.3Q69 0.3 69-2.1L69-2.1 69-21.75Q69-23.05 68.2-24.25L68.2-24.25 68.25-24.2Q67.6-25.4 65.6-25.4L65.6-25.4 59.35-25.4Q57.3-25.4 56.65-24.2L56.65-24.2Q55.95-23.15 55.95-21.75L55.95-21.75ZM86.59-27.9L86.59-2.1Q86.59 0.3 83.84 0.3L83.84 0.3Q81.04 0.3 81.04-2.1L81.04-2.1 81.04-27.9Q81.04-30.3 83.84-30.3L83.84-30.3Q86.59-30.3 86.59-27.9L86.59-27.9ZM87.64-36.6L87.64-36.6Q87.64-35 86.54-33.9 85.44-32.8 83.84-32.8L83.84-32.8Q82.24-32.8 81.12-33.9 79.99-35 79.99-36.6L79.99-36.6Q79.99-38.25 81.12-39.35 82.24-40.45 83.84-40.45L83.84-40.45Q85.44-40.45 86.54-39.35 87.64-38.25 87.64-36.6ZM109.04-1.95L109.04-21.75Q109.04-22.4 108.84-23.03 108.64-23.65 108.34-24.2L108.34-24.2Q107.69-25.4 105.64-25.4L105.64-25.4 102.44-25.4Q100.39-25.4 99.69-24.2L99.69-24.2Q99.09-23.05 99.09-21.75L99.09-21.75 99.09-1.95Q99.09 0.4 96.34 0.4L96.34 0.4Q93.49 0.4 93.49-1.95L93.49-1.95 93.49-22.2Q93.49-26.3 96.19-28.2L96.19-28.2Q98.94-30.1 101.54-30.1L101.54-30.1 106.59-30.1Q107.74-30.1 109.14-29.65 110.54-29.2 111.84-28.25L111.84-28.25Q113.09-29.2 114.47-29.65 115.84-30.1 117.09-30.1L117.09-30.1 122.09-30.1Q124.74-30.1 127.39-28.2L127.39-28.2Q130.14-26.35 130.14-22.2L130.14-22.2 130.14-1.95Q130.14 0.4 127.34 0.4L127.34 0.4Q124.54 0.4 124.54-1.95L124.54-1.95 124.54-21.75Q124.54-22.4 124.39-23.05 124.24-23.7 123.84-24.25L123.84-24.25 123.89-24.2Q123.49-24.85 122.89-25.13 122.29-25.4 121.14-25.4L121.14-25.4 117.99-25.4Q115.89-25.4 115.24-24.2L115.24-24.2Q114.59-23.1 114.59-21.75L114.59-21.75 114.59-1.95Q114.59 0.4 111.84 0.4L111.84 0.4Q109.04 0.4 109.04-1.95L109.04-1.95ZM141.74-22.15L141.74-8Q141.74-6.8 142.51-5.75 143.29-4.7 145.14-4.7L145.14-4.7 151.39-4.7Q153.24-4.7 154.01-5.63 154.79-6.55 154.79-7.75L154.79-7.75 154.79-8.3Q154.79-10.65 157.54-10.65L157.54-10.65Q160.29-10.65 160.29-8.3L160.29-8.3 160.29-7.7Q160.29-5.6 159.61-4.25 158.94-2.9 157.59-1.9L157.59-1.9Q154.94 0 152.29 0L152.29 0 143.89 0Q141.24 0 138.74-1.9L138.74-1.9Q137.54-2.9 136.89-4.42 136.24-5.95 136.24-7.95L136.24-7.95 136.24-22.2Q136.24-26.25 138.74-28.2L138.74-28.2Q139.99-29.1 141.31-29.63 142.64-30.15 143.89-30.15L143.89-30.15 152.29-30.15Q153.49-30.15 154.94-29.68 156.39-29.2 157.64-28.4L157.64-28.4Q158.84-27.55 159.56-26.05 160.29-24.55 160.29-22.5L160.29-22.5 160.29-15.75Q160.29-14.6 159.61-13.7 158.94-12.8 157.14-12.8L157.14-12.8 146.34-12.8Q144.54-12.8 144.44-15.15L144.44-15.15Q144.44-17.5 146.34-17.5L146.34-17.5 154.84-17.5 154.79-22.15Q154.79-23.4 154.01-24.43 153.24-25.45 151.39-25.45L151.39-25.45 145.14-25.45Q143.29-25.45 142.51-24.43 141.74-23.4 141.74-22.15L141.74-22.15Z" opacity="1" transform="matrix(1,0,0,1,0,0)" fill="#2b2b2b" class="wordmark-text-0" data-fill-palette-color="primary" id="text-0"></path></svg></g></svg></g></svg></g></svg></g><g><svg viewBox="0 0 303.0948864 175.38092280400662" height="175.38092280400662" width="303.0948864"><g><svg xmlns="http://www.w3.org/2000/svg" xmlns:xlink="http://www.w3.org/1999/xlink" version="1.1" x="0" y="0" viewBox="0.355 22.828999999999997 98.838 57.19100000000002" enable-background="new 0 0 100 100" xml:space="preserve" height="175.38092280400662" width="303.0948864" class="icon-icon-0" data-fill-palette-color="accent" id="icon-0"><path fill="#0469a2" d="M57.943 57.338l-0.295-0.168v-0.339l0.295-0.17 0.147 0.085 0.146 0.085v0.339L57.943 57.338zM40.301 55.078l0.196-0.113-0.39-0.123 0.004 0.129L40.301 55.078zM58.411 57.309l-0.14-0.082-0.293 0.17v0.223h0.237L58.411 57.309zM57.587 57.17v-0.338l-0.106-0.061-0.187-0.11L57 56.832v0.338l0.292 0.168L57.587 57.17zM69.537 43.008l-1.35-1.46-4.307 2.073-4.999 4.455 2.49 1.109 4.994-4.449L69.537 43.008zM54.28 49.69l1.721 0.311 7.437-6.629-9.412 4.545L54.28 49.69zM42.366 52.279l-0.138 0.022v2.045c-0.002 0.062-0.049 0.118-0.122 0.099l-2.884-0.844-0.01 0.459 3.154 0.981V52.279zM42.366 52.279L42.366 52.279 42.366 52.279 42.366 52.279zM57.912 57.396l-0.311-0.158-0.276 0.158v0.218l0.587 0.005V57.396zM40.266 55.473v-0.167-0.169l-0.154-0.089 0.015 0.507L40.266 55.473zM59.436 55.048l-0.153 0.089v0.169 0.167l0.138 0.082L59.436 55.048zM59.443 54.842l-0.393 0.123 0.197 0.113 0.191-0.107L59.443 54.842zM59.417 55.691l0.001-0.062-0.17-0.098L58.955 55.7v0.169 0.171l0.18 0.103L59.417 55.691zM40.414 56.143l0.179-0.103v-0.171V55.7l-0.292-0.169-0.172 0.098 0.003 0.062L40.414 56.143zM58.79 56.697l0.312-0.499-0.179-0.102-0.293 0.171v0.168 0.168l0.113 0.143L58.6 56.665l-0.287 0.164v0.339l0.135 0.079L58.79 56.697zM49.154 50.602l-0.535 0.927 0.535 0.929h1.07l0.535-0.929-0.535-0.927H49.154zM41.101 57.247l0.135-0.079v-0.339l-0.286-0.164-0.145 0.081 0.113-0.143v-0.168-0.168l-0.292-0.171-0.176 0.102 0.31 0.499L41.101 57.247zM60.326 53.602l-2.885 0.845c-0.072 0.021-0.121-0.035-0.123-0.099v-2.045l-0.137-0.022v2.764l3.151-0.981L60.326 53.602zM56.145 50.514l-1.791-0.322 0.123 0.855 4.609 0.83 2.617-2.334-2.979-1.326L56.145 50.514zM42.225 56.604v-0.336l-0.294-0.171-0.294 0.171v0.336l0.294 0.17L42.225 56.604zM43.27 56.04l0.292 0.168 0.293-0.168-0.587-0.212L43.27 56.04zM42.616 55.7v0.34l0.292 0.168 0.293-0.169v-0.232l-0.498-0.154L42.616 55.7zM42.942 56.268v0.336l0.293 0.17 0.292-0.17v-0.336l-0.292-0.171L42.942 56.268zM44.213 56.208l0.098-0.055-0.391-0.122L44.213 56.208zM43.594 56.268v0.338l0.293 0.168 0.293-0.168v-0.338l-0.293-0.171L43.594 56.268zM41.424 55.559l0.147-0.086v-0.167l-0.563-0.184-0.023 0.184v0.167l0.146 0.086 0.147 0.086L41.424 55.559zM40.918 55.473v-0.167-0.169l-0.155-0.09-0.178-0.057-0.251 0.146v0.169 0.167l0.144 0.086 0.148 0.086 0.146-0.086L40.918 55.473zM41.236 56.038V55.7l-0.286-0.165L40.659 55.7v0.169 0.17l0.288 0.167L41.236 56.038zM42.291 56.268v0.338l0.293 0.168 0.292-0.168v-0.338l-0.292-0.171L42.291 56.268zM41.964 55.7v0.339l0.295 0.169 0.291-0.169V55.7l-0.293-0.167L41.964 55.7zM44.542 56.773l0.292-0.17v-0.291l-0.437-0.134-0.149 0.089v0.336L44.542 56.773zM47.313 61.854l-4.06 1.882v4.495l3.346 0.847 0.213 0.054 0.018-0.054 0.772-2.61c0.022-0.079 0.147-0.173 0.229-0.173h1.939 1.938c0.089 0 0.214 0.094 0.239 0.173l0.771 2.61 0.017 0.054 0.213-0.054 3.35-0.847v-4.495l-4.062-1.882c-0.008-0.004-0.06-0.051-0.063-0.06l-1.845-3.209h-1.102l-1.846 3.209C47.373 61.804 47.322 61.852 47.313 61.854zM42.193 55.493l-0.556-0.175v0.154l0.294 0.172L42.193 55.493zM51.753 37.575l2.372 17.114h-2.579c-0.132 0-0.246 0.114-0.246 0.246 0 0.139 0.606 2.802 0.606 2.802h-4.278c0 0 0.604-2.663 0.604-2.802 0-0.132-0.113-0.246-0.247-0.246h-2.577l2.37-17.114H51.753zM50.893 54.9h-2.264c-0.228 0-0.228 0.34 0 0.34h2.264C51.117 55.24 51.117 54.9 50.893 54.9zM52.221 48.993h-1.462l-0.731 1.266-1.07 0.005-0.73 1.266 0.73 1.266h1.461l0.733-1.266 1.068-0.006 0.73-1.265L52.221 48.993zM36.099 49.538l3.116 2.612c0.012 0.01 0.035 0.062 0.035 0.074l-0.023 1.178 2.812 0.82V52.34l-1.756 0.316-4.591-4.092v13.058l0.303 0.156L35.94 49.612C35.94 49.51 36.022 49.473 36.099 49.538zM45.269 49.69l0.256-1.773-9.415-4.545 7.438 6.629L45.269 49.69zM31.36 41.548l-1.348 1.46 3.17 1.729 4.997 4.449 2.488-1.109-4.999-4.455L31.36 41.548zM41.897 56.04V55.7l-0.293-0.167L41.311 55.7v0.34l0.293 0.168L41.897 56.04zM40.464 51.877l4.609-0.83 0.122-0.855-1.793 0.322-2.578-2.297-2.979 1.326L40.464 51.877zM41.424 56.688l0.147-0.082v-0.17-0.168l-0.293-0.171-0.293 0.171v0.168 0.17l0.293 0.168L41.424 56.688zM57 55.7v0.339l0.292 0.169 0.295-0.169V55.7l-0.293-0.167L57 55.7zM57.979 56.268v0.168 0.17l0.146 0.082 0.147 0.086 0.293-0.168v-0.17-0.168l-0.293-0.171L57.979 56.268zM55.628 56.031l-0.391 0.122 0.097 0.055L55.628 56.031zM59.07 55.559l0.146-0.086v-0.167-0.169l-0.252-0.146-0.178 0.057-0.156 0.09v0.169 0.167l0.147 0.086 0.146 0.086L59.07 55.559zM58.312 55.7v0.338l0.289 0.168 0.287-0.167v-0.17V55.7L58.6 55.535 58.312 55.7zM57.648 55.7v0.34l0.295 0.168 0.294-0.168V55.7l-0.294-0.167L57.648 55.7zM57.325 56.268v0.336l0.293 0.17 0.294-0.17v-0.336l-0.294-0.171L57.325 56.268zM41.571 57.619v-0.223l-0.293-0.17-0.141 0.082 0.195 0.311H41.571zM56.673 56.268v0.338l0.293 0.168 0.294-0.168v-0.338l-0.294-0.171L56.673 56.268zM54.406 55.18h-2.574c0.062 0.321 0.191 0.894 0.316 1.432l4.843-1.508v-2.856l-2.779-0.504 0.437 3.16C54.669 55.056 54.561 55.18 54.406 55.18zM57.618 55.645l0.294-0.172v-0.154l-0.559 0.175L57.618 55.645zM57.26 57.51v-0.113l-0.294-0.17-0.293 0.17v0.216l0.587 0.002V57.51zM59.799 36.353l-0.023 3.374 0.15-0.056 0.41-0.397 0.02-2.458-0.209-0.286C60.061 36.412 59.977 36.335 59.799 36.353zM57.908 40.417l0.023-3.229-0.562 0.272-0.021 3.164L57.908 40.417zM59.121 39.968l0.025-3.366-0.561 0.271-0.025 3.303L59.121 39.968zM61.163 37.929l-0.164-0.226-0.006 0.938 0.097-0.113C61.316 38.236 61.29 38.104 61.163 37.929zM59.27 36.115c0.553-0.242 0.914-0.192 1.188 0.188l1.018 1.398c0.252 0.346 0.223 0.671-0.084 1.065-0.021 0.026-0.574 0.568-0.938 0.926l2.241-0.916 1.389-1.349c-0.691 0.396-1.468 0.693-2.123 0.836-0.126 0.027-0.166-0.16-0.04-0.188 1.088-0.236 2.17-0.771 3.021-1.491 0.385-0.441 0.638-0.893 0.232-1.45l-1.531-2.105c-0.115-0.158-0.238-0.272-0.387-0.34-0.553 1.184-1.609 2.522-2.625 3.297-0.255 0.193-0.546-0.188-0.291-0.382 0.805-0.613 1.434-1.407 1.863-2.054 0.256-0.387 0.438-0.718 0.543-0.919-0.171 0.024-0.364 0.086-0.592 0.185l-6.317 3.354c-0.283 0.149-0.508-0.274-0.226-0.426l0.182-0.096-0.951-0.402 0.358 2.836L59.27 36.115zM63.553 61.778l0.307-0.156v-3.485-9.572l-4.592 4.092-1.757-0.316v1.884l2.812-0.82-0.024-1.178c0-0.014 0.024-0.064 0.036-0.074l3.115-2.612c0.077-0.065 0.157-0.028 0.157 0.074l-0.036 8.523L63.553 61.778zM56.693 40.866l0.024-3.091-0.562 0.273-0.022 3.025L56.693 40.866zM46.124 30.197l-0.261-0.308 0.271-2.143c0.06-0.472 0.151-0.815 0.269-1.062 0.448 0.324 0.973 0.593 1.468 0.806 0.295 0.126 0.483-0.315 0.189-0.441-0.455-0.196-0.827-0.407-1.089-0.57-0.116-0.073-0.211-0.135-0.277-0.182 0.275-0.232 0.647-0.263 1.125-0.263l1.962-0.001 1.943 0.001c0.477 0 0.847 0.032 1.123 0.263-0.066 0.047-0.162 0.11-0.276 0.182-0.263 0.163-0.636 0.374-1.091 0.57-0.295 0.126-0.106 0.567 0.188 0.441 0.498-0.213 1.021-0.483 1.468-0.806 0.121 0.247 0.211 0.589 0.271 1.062l0.271 2.143-0.256 0.308c-0.007 0.009-0.023 0.062-0.021 0.074l1.438 11.716-1.812 0.74c-0.022 0.004-0.043 0.01-0.062 0.018l-0.754-5.448c-0.014-0.107-0.137-0.211-0.243-0.211h-4.4c-0.108 0-0.228 0.105-0.244 0.211l-0.754 5.441-1.861-0.751 1.439-11.716C46.146 30.26 46.132 30.205 46.124 30.197zM48.166 33.411c0 0.264 0.212 0.48 0.48 0.48h2.204c0.267 0 0.479-0.215 0.479-0.48v-5.479c0-0.264-0.212-0.48-0.479-0.48h-2.204c-0.267 0-0.48 0.216-0.48 0.48V33.411zM48.166 34.947c0 0.214 0.172 0.385 0.385 0.385h2.396c0.212 0 0.383-0.171 0.383-0.385v-0.191c0-0.213-0.171-0.385-0.383-0.385h-2.396c-0.213 0-0.385 0.172-0.385 0.385V34.947zM55.023 41.91l0.314-0.128c-0.099-0.016-0.172-0.092-0.186-0.213L53.714 30.15l-0.116 0.139L55.023 41.91zM55.501 38.363l-0.213 0.104 0.207 1.067L55.501 38.363zM57.979 55.306v0.167l0.146 0.086 0.147 0.086 0.146-0.086 0.147-0.086v-0.167l-0.024-0.184L57.979 55.306zM55.628 57.17v-0.339l-0.294-0.17-0.294 0.17v0.339l0.294 0.168L55.628 57.17zM53.996 57.396l-0.292-0.17-0.294 0.17v0.207h0.586V57.396zM55.302 57.396l-0.293-0.17-0.293 0.17v0.211h0.586V57.396zM54.648 57.396l-0.293-0.17-0.293 0.17v0.207l0.586 0.002V57.396zM54.323 57.173v-0.338l-0.293-0.17-0.293 0.17v0.338l0.293 0.168L54.323 57.173zM54.975 57.17v-0.338l-0.291-0.171-0.293 0.171v0.338l0.291 0.168L54.975 57.17zM56.932 57.17v-0.338l-0.293-0.171-0.291 0.17v0.339l0.291 0.168L56.932 57.17zM56.605 57.396l-0.299-0.166-0.285 0.166v0.216h0.584V57.396zM56.279 57.17v-0.338l-0.29-0.171-0.293 0.17v0.339l0.291 0.168L56.279 57.17zM55.954 57.396l-0.293-0.17-0.294 0.17v0.214l0.587 0.002V57.396zM53.021 56.844l-0.157 0.051 0.157 0.295V56.844zM56.605 56.604v-0.336l-0.293-0.171-0.291 0.171v0.336l0.291 0.17L56.605 56.604zM56.279 56.04v-0.212l-0.583 0.212 0.291 0.168L56.279 56.04zM55.954 56.605v-0.338l-0.293-0.171-0.294 0.171v0.338l0.294 0.168L55.954 56.605zM56.932 56.04V55.7l-0.088-0.048-0.496 0.154v0.232l0.291 0.169L56.932 56.04zM53.345 57.604v-0.207l-0.323-0.207 0.211 0.414H53.345zM53.672 57.17v-0.338l-0.216-0.126-0.373 0.126v0.338l0.295 0.168L53.672 57.17zM54.716 56.312v0.291l0.293 0.17 0.293-0.17v-0.336l-0.151-0.089L54.716 56.312zM54.355 56.773l0.293-0.168v-0.271l-0.586 0.185v0.086L54.355 56.773zM53.996 56.605v-0.066l-0.454 0.142 0.162 0.093L53.996 56.605zM43.855 57.17v-0.339l-0.293-0.17-0.294 0.171v0.338l0.294 0.168L43.855 57.17zM60.217 69.076c-0.439 1.954-0.972 4.33-1.556 6.922h-0.378v-6.922-5.123l2.251-5.909 0.016-0.085v-3.462l0.234-0.075v0.225c0 0.319 0.481 0.19 0.481-0.131v-0.242l0.154-0.049v0.252c0 0.318 0.48 0.188 0.48-0.132v-0.271l0.153-0.045v0.275c0 0.32 0.481 0.191 0.481-0.13v-0.296l0.179-0.055v3.908l-1.29 5.989C61.424 63.722 60.949 65.819 60.217 69.076zM60.742 58.137c0.029 0.027 0.07 0.049 0.122 0.049h1.432c0.054 0 0.095-0.022 0.122-0.049 0.094-0.095 0.05-0.293-0.122-0.293h-1.432C60.691 57.844 60.652 58.044 60.742 58.137zM61.031 64.027c0.224 0.003 0.229-0.338 0.003-0.34l-2.405-0.028c-0.227-0.004-0.23 0.338-0.006 0.34L61.031 64.027zM59.182 64.672c0-0.32-0.48-0.32-0.48 0v1.59c0 0.32 0.48 0.32 0.48 0V64.672zM59.814 64.672c0-0.32-0.478-0.32-0.478 0v1.59c0 0.32 0.478 0.32 0.478 0V64.672zM60.453 66.262v-1.59c0-0.32-0.48-0.32-0.48 0v1.59C59.973 66.582 60.453 66.582 60.453 66.262zM52.752 70.915l-1.867 7.661h-0.146V71.32c0-0.106-0.088-0.193-0.215-0.193h-1.5c-0.127 0-0.211 0.087-0.211 0.193v7.256h-0.148l-1.871-7.661 0.545-1.838 0.682-2.304h1.756 1.753l0.681 2.304L52.752 70.915zM48.943 70.756l-0.329-1.679-0.398-2.029c-0.012-0.056-0.056-0.079-0.097-0.077-0.058-0.004-0.117 0.041-0.102 0.114l0.391 1.992 0.339 1.718c0.009 0.055 0.053 0.079 0.097 0.077C48.9 70.874 48.959 70.832 48.943 70.756zM51.531 67.085c0.015-0.073-0.044-0.118-0.102-0.114-0.041-0.002-0.086 0.021-0.097 0.077l-0.399 2.029-0.33 1.679c-0.015 0.076 0.045 0.118 0.104 0.116 0.041 0.002 0.086-0.022 0.095-0.077l0.337-1.718L51.531 67.085zM59.086 58.137l0.003-0.212-6.474 0.702-1.191 1.292 0.973 1.693 4.104 1.899c0.033 0.017 0.085 0.096 0.085 0.131v4.699c0 0.053-0.061 0.126-0.111 0.141l-3.658 0.924 0.426 1.435c0.002 0.009 0.006 0.116 0.004 0.125L52.4 74.429h2.812l1.94-4.071 0.012-6.942c0-0.06 0.012-0.121 0.038-0.187l1.88-4.957L59.086 58.137zM49.027 72.055h1.495v-0.396h-1.495V72.055zM49.027 73.223h1.495v-0.396h-1.495V73.223zM66.162 46.512h2.382l-0.354-1.566-0.17-0.021-0.944 0.515c0.056 0.089 0.058 0.209-0.046 0.303L66.162 46.512zM49.027 74.391h1.495v-0.396h-1.495V74.391zM62.014 70.382h-1.596l-0.085 0.372h1.612L62.014 70.382zM63.713 62.239c-0.137 0.069-0.261 0.005-0.316-0.097-0.018-0.029-0.031-0.065-0.034-0.142l0.018-3.865 0.035-8.317-2.923 2.449L60.525 54l2.354-0.732c0.177-0.057 0.315 0.045 0.315 0.228l-0.008 4.312-0.07 0.329-1.229 5.688-1.18 5.252-0.251 1.113h2.824l0.952-5.106c-0.269 0.111-0.545 0.212-0.823 0.298-0.308 0.098-0.45-0.361-0.146-0.457 0.582-0.185 1.153-0.424 1.703-0.712 0.191-0.101 0.379-0.207 0.564-0.321l0.242-0.147c0.49-0.316 0.955-0.674 1.396-1.072l-0.994-1.705L63.713 62.239zM63.688 69.077l-0.23 1.227c-0.007 0.036-0.055 0.078-0.093 0.078H62.21l-0.092 0.487c-0.011 0.055-0.05 0.077-0.095 0.077H60.29l-1.045 4.638c1.62-1.38 3.098-3.041 4.358-4.756l0.34-1.751 0.82-4.226c-0.104 0.05-0.205 0.098-0.312 0.144L63.688 69.077zM29.111 57.763v-2.4h-0.655C28.606 56.196 28.826 56.999 29.111 57.763zM32.069 60.298c-0.049-0.024-0.13-0.155-0.13-0.213v-6.333l-1.093-1.094c-0.018-0.019-0.072-0.147-0.072-0.172V47.52l-0.182 0.805v4.944l1.137 1.137c0.006 0.008 0.025 0.058 0.025 0.068v2.812c0 0.051-0.043 0.097-0.094 0.097h-1.35V60.2c0.553 0.876 1.2 1.661 1.922 2.339l0.967-1.659L32.069 60.298zM29.398 58.479c0.213 0.487 0.455 0.961 0.72 1.409v-2.506h-0.72V58.479zM36.137 65.382c-0.279-0.086-0.554-0.187-0.825-0.298l0.747 3.993 0.208 1.112h2.822l-0.251-1.112-1.178-5.252-1.228-5.688-0.07-0.328-0.007-4.312c0-0.182 0.136-0.283 0.312-0.229l2.355 0.733 0.034-1.731-2.924-2.45 0.053 12.184c-0.003 0.075-0.014 0.111-0.032 0.142-0.058 0.102-0.18 0.166-0.318 0.097l-2.47-1.273-0.989 1.705c0.438 0.398 0.905 0.756 1.396 1.072l0.241 0.147c0.187 0.114 0.375 0.222 0.564 0.321 0.549 0.288 1.119 0.527 1.701 0.712C36.587 65.021 36.441 65.479 36.137 65.382zM29.952 53.797v-1.175h-0.248v-0.378l0.698-3.073v4.138c0 0.011 0.019 0.062 0.026 0.068l1.136 1.136v2.677h-2.166v-1.827h0.161c0.076 0 0.145-0.066 0.145-0.145v-1.42L29.952 53.797zM30.897 56.811l0.129 0.225h0.259l0.129-0.225-0.129-0.224h-0.259L30.897 56.811zM30.219 56.811l0.129 0.225h0.26l0.128-0.225-0.128-0.224h-0.26L30.219 56.811zM49.027 75.561h1.495v-0.396h-1.495V75.561zM41.897 57.17v-0.339l-0.293-0.17-0.146 0.085-0.147 0.085v0.339l0.293 0.168L41.897 57.17zM46.309 70.841l0.424-1.435-3.659-0.924c-0.052-0.015-0.11-0.088-0.11-0.141v-4.699c0-0.035 0.051-0.114 0.085-0.131l4.103-1.899 0.975-1.693-1.192-1.292-6.472-0.702 0.003 0.212 0.002 0.135 1.882 4.957c0.025 0.064 0.036 0.127 0.036 0.187l0.009 5.663 0.002 1.279 1.944 4.071h2.81l-0.844-3.463C46.301 70.957 46.305 70.85 46.309 70.841zM39.215 70.754l-0.083-0.372h-1.597l0.069 0.372H39.215zM39.055 58.137l2.214 5.817v12.044h-0.376c-0.585-2.591-2.764-12.277-2.764-12.277l-1.204-5.585-0.088-0.403v-3.909l0.178 0.055v0.296c0 0.321 0.48 0.45 0.48 0.13v-0.275l0.155 0.047v0.271c0 0.32 0.48 0.45 0.48 0.131v-0.25l0.155 0.047v0.244c0 0.32 0.48 0.449 0.48 0.129v-0.224l0.236 0.075v3.462l0.016 0.085L39.055 58.137zM38.685 58.186c0.052 0 0.094-0.022 0.119-0.049 0.094-0.095 0.053-0.293-0.119-0.293h-1.433c-0.171 0-0.214 0.2-0.122 0.293 0.029 0.027 0.069 0.049 0.122 0.049H38.685zM39.577 64.672c0-0.32-0.481-0.32-0.481 0v1.59c0 0.32 0.481 0.32 0.481 0V64.672zM40.213 64.672c0-0.32-0.48-0.32-0.48 0v1.59c0 0.32 0.48 0.32 0.48 0V64.672zM40.849 64.672c0-0.32-0.48-0.32-0.48 0v1.59c0 0.32 0.48 0.32 0.48 0V64.672zM40.92 63.659l-2.407 0.028c-0.222 0.002-0.221 0.343 0.007 0.34l2.404-0.028C41.151 63.997 41.147 63.655 40.92 63.659zM37.523 70.946c-0.04 0-0.082-0.022-0.094-0.077l-0.092-0.487h-1.151c-0.041 0-0.088-0.042-0.094-0.078l-0.994-5.309c-0.105-0.046-0.21-0.095-0.314-0.144l1.162 5.977c1.259 1.715 2.738 3.376 4.356 4.756l-1.043-4.638H37.523zM53.975 47.565l40.383-19.498v-0.409L53.921 47.182 53.975 47.565zM66.469 44.899l-4.906 4.372 0.3 0.132 4.827-4.304 3.179-1.732-0.196-0.213L66.469 44.899zM70.021 49.675h0.961c-0.383-1.754-1.08-3.354-2.031-4.719L70.021 49.675zM69.852 49.792l-1.186-5.222-0.264 0.142c0.021 0.02 0.039 0.041 0.045 0.069l1.687 7.445v2.848h1.005c0.116-0.737 0.178-1.498 0.178-2.275 0-1.01-0.101-1.992-0.293-2.932h-1.078C69.907 49.867 69.857 49.827 69.852 49.792zM70.439 57.763c0.283-0.764 0.502-1.565 0.65-2.4h-0.65V57.763zM69.141 42.295l0.903 0.977 5.654-3.082-0.992-0.741L69.141 42.295zM53.868 46.831l44.024-21.257v-0.808l-44.578 18.21L53.868 46.831zM79.109 36.288l-10.74 5.172L69 42.15l5.673-2.899c0.021-0.011 0.081-0.006 0.103 0.008l1.109 0.83 0.325-0.176 4.073-4.674-0.732 0.354L79.109 36.288zM64.168 49.984L64.168 49.984h1.193c0.221 0 0.46-0.076 0.535-0.171l0.655-0.816c0.074-0.094-0.043-0.171-0.262-0.171h-2.122V49.984zM69.99 55.362h0.16v1.827h-2.166v-2.677l1.135-1.136c0.008-0.006 0.029-0.057 0.029-0.068v-4.138l0.695 3.073v0.378h-0.246v1.175l0.246 0.001v1.42C69.844 55.296 69.912 55.361 69.99 55.362zM68.652 56.811l-0.065-0.111-0.063-0.111h-0.131-0.129L68.2 56.699l-0.065 0.111 0.065 0.111 0.063 0.112h0.129 0.131l0.063-0.112L68.652 56.811zM69.328 56.811l-0.064-0.111L69.2 56.588h-0.129-0.13l-0.064 0.111-0.064 0.111 0.064 0.111 0.064 0.112h0.13H69.2l0.065-0.112L69.328 56.811zM29.416 52.229l1.686-7.446c0.005-0.028 0.022-0.05 0.043-0.069l-0.262-0.142-1.184 5.222c-0.009 0.035-0.062 0.075-0.094 0.075h-1.08c-0.191 0.938-0.294 1.922-0.294 2.932 0 0.777 0.062 1.538 0.179 2.275h1.006V52.229zM99.193 22.831v3.562l-3.535 1.706v0.786l-13.704 6.616-4.827 5.555-6.635 3.616c1.449 2.3 2.266 5.113 2.266 8.128 0 1.804-0.31 3.627-0.925 5.338-1.037 2.889-2.94 5.452-5.667 7.06l-0.753 3.882-0.425 2.18-0.122 0.286c-0.916 1.268-4.035 5.111-5.55 5.784-0.168 0.08-0.342 0.112-0.515 0.112H58.04c-0.657 0-1.199-0.543-1.199-1.2v-0.759c-0.278 0.59-0.729 0.871-1.38 0.871l-2.521-0.004c-0.166 0.996-0.849 3.666-1.856 3.67h-2.608c-0.969-0.004-1.699-2.666-1.864-3.67l-2.523 0.004c-0.657 0-1.103-0.273-1.38-0.873v0.761c0 0.657-0.542 1.2-1.197 1.2h-0.763c-0.19 0-0.379-0.04-0.561-0.135-1.545-0.759-4.542-4.431-5.502-5.763l-0.123-0.286-0.425-2.18-0.754-3.882c-2.726-1.608-4.628-4.171-5.666-7.06-0.615-1.709-0.926-3.533-0.926-5.338 0-3.015 0.819-5.828 2.267-8.128l-6.635-3.616L17.595 35.5 3.892 28.883v-0.786l-3.537-1.706v-3.562L32.8 36.081c-0.245-1.54 1.125-2.775 1.942-3.9 0.886-1.22 2.184-1.141 3.288-0.659l5.224 2.776 0.641-0.271 0.812-6.464c0.308-2.376 1.509-2.972 3.115-2.972l1.942-0.001 1.964 0.001c1.604 0 2.803 0.596 3.112 2.972l0.812 6.464 0.644 0.271 5.222-2.776c2.688-1.174 3.594 1.081 4.819 2.768 0.452 0.62 0.547 1.23 0.446 1.779L99.193 22.831zM98.232 24.261L63.881 38.293l1.376-1.337c0.558-0.63 0.87-1.323 0.304-2.102l-1.53-2.108c-0.509-0.699-1.2-0.75-2.093-0.358l-5.597 2.976-1.569-0.666-0.884-7.01c-0.239-1.851-0.989-2.133-2.159-2.133l-1.963-0.001-1.942 0.001c-1.172 0-1.922 0.282-2.162 2.133l-0.883 7.01-1.57 0.666-5.595-2.976c-0.896-0.392-1.585-0.341-2.092 0.358l-1.531 2.108c-0.568 0.78-0.254 1.472 0.305 2.102l1.374 1.337L1.317 24.261v1.526l3.536 1.707v0.787L18.19 34.72l4.845 5.574 7.419 4.042c-1.704 2.274-2.704 5.234-2.704 8.463 0 1.901 0.353 3.708 0.986 5.338 0.992 2.549 2.673 4.663 4.776 6.01 0.239 0.154 0.483 0.295 0.729 0.431l0.876 4.501 0.368 1.895 0.041 0.097c1.401 1.939 3.135 3.857 5.018 5.333 0.028 0.021 0.058 0.039 0.083 0.053 0.033 0.017 0.074 0.025 0.12 0.025h0.763c0.125 0 0.239-0.112 0.239-0.239v-4.576h0.148l1.681 3.407c0.117 0.253 0.219 0.32 0.508 0.32 0 0 2.628-0.003 3.296-0.007l0.851 3.489c0.022 0.086 0.144 0.184 0.242 0.184h2.608c0.087 0 0.211-0.098 0.233-0.184l0.849-3.489c0.671 0.004 3.296 0.007 3.296 0.007 0.29 0 0.393-0.067 0.512-0.32l1.678-3.407H57.8v4.576c0 0.127 0.113 0.239 0.24 0.239h0.761c0.049 0 0.086-0.008 0.117-0.025 0.03-0.014 0.057-0.032 0.085-0.053 1.884-1.476 3.62-3.394 5.021-5.333l0.039-0.097 1.244-6.396c0.25-0.136 0.49-0.277 0.729-0.431 2.104-1.347 3.783-3.461 4.773-6.01 0.635-1.629 0.987-3.437 0.987-5.338 0-3.229-0.997-6.19-2.703-8.463l7.421-4.042 4.844-5.574 13.336-6.438v-0.787l3.537-1.707h0.002V24.261zM64.168 54.572L64.168 54.572h1.193c0.221 0 0.46-0.077 0.535-0.172l0.655-0.816c0.074-0.094-0.043-0.169-0.262-0.169h-2.122V54.572zM64.168 53.043L64.168 53.043h1.193c0.221 0 0.46-0.077 0.535-0.171l0.655-0.815c0.074-0.095-0.043-0.172-0.262-0.172h-2.122V53.043zM64.168 51.514L64.168 51.514h1.193c0.221 0 0.46-0.074 0.535-0.171l0.655-0.817c0.074-0.092-0.043-0.168-0.262-0.168h-2.122V51.514zM64.168 56.1L64.168 56.1h1.193c0.221 0 0.46-0.076 0.535-0.17l0.655-0.817c0.074-0.095-0.043-0.171-0.262-0.171h-2.122V56.1zM69.43 59.888c0.268-0.448 0.508-0.922 0.721-1.409v-1.097H69.43V59.888zM64.168 60.686L64.168 60.686h1.193c0.221 0 0.46-0.074 0.535-0.168l0.655-0.818c0.074-0.094-0.043-0.17-0.262-0.17h-2.122V60.686zM64.168 57.628L64.168 57.628h1.193c0.221 0 0.46-0.075 0.535-0.17l0.655-0.815c0.074-0.096-0.043-0.171-0.262-0.171h-2.122V57.628zM67.792 57.285v-2.811c0-0.013 0.019-0.062 0.026-0.069l1.137-1.136v-4.945l-0.184-0.805v4.967c0 0.023-0.053 0.153-0.069 0.172l-1.093 1.094v6.333c0 0.058-0.082 0.188-0.131 0.213l-1.127 0.581 0.965 1.659c0.725-0.678 1.369-1.463 1.922-2.339v-2.817h-1.353C67.835 57.382 67.792 57.336 67.792 57.285zM66.291 57.999h-2.122v1.158h1.192c0.221 0 0.46-0.077 0.535-0.171l0.655-0.816c0.011-0.011 0.017-0.021 0.021-0.033v-0.001C66.598 58.059 66.482 57.999 66.291 57.999zM64.169 48.288v0.167h1.192c0.221 0 0.46-0.076 0.535-0.17l0.655-0.817c0.074-0.094-0.043-0.17-0.262-0.17h-1.013L64.169 48.288zM39.098 39.693c-0.365-0.357-0.917-0.899-0.94-0.926-0.306-0.395-0.334-0.72-0.083-1.065l1.017-1.398c0.275-0.381 0.636-0.431 1.189-0.188l4.072 1.968 0.354-2.836-0.949 0.402 0.18 0.096c0.282 0.151 0.059 0.575-0.226 0.426l-6.316-3.354c-0.227-0.1-0.421-0.16-0.592-0.186 0.104 0.201 0.288 0.532 0.545 0.919 0.43 0.646 1.057 1.44 1.862 2.054 0.255 0.193-0.036 0.576-0.291 0.382-1.019-0.774-2.072-2.113-2.627-3.297-0.147 0.067-0.27 0.182-0.386 0.34l-1.529 2.105c-0.405 0.559-0.154 1.009 0.23 1.45 0.854 0.722 1.934 1.255 3.021 1.491 0.127 0.027 0.084 0.215-0.041 0.188-0.655-0.143-1.427-0.44-2.121-0.836l1.389 1.35L39.098 39.693zM46.465 57.17v-0.338l-0.373-0.126-0.215 0.126v0.338l0.294 0.168L46.465 57.17zM45.812 57.173v-0.338l-0.294-0.17-0.29 0.17-0.001 0.338 0.291 0.168L45.812 57.173zM46.531 56.844v0.346l0.155-0.295L46.531 56.844zM46.006 56.681l-0.453-0.142v0.066l0.293 0.168L46.006 56.681zM46.531 57.189l-0.328 0.207v0.207h0.112L46.531 57.189zM44.209 41.782l0.314 0.128 1.428-11.621-0.116-0.139-1.439 11.419C44.381 41.69 44.307 41.767 44.209 41.782zM44.056 39.535l0.208-1.067-0.215-0.104L44.056 39.535zM45.484 57.396l-0.293-0.17-0.293 0.17v0.209l0.586-0.002V57.396zM47.7 55.18h-2.574c-0.155 0-0.263-0.124-0.243-0.276l0.438-3.156-2.761 0.5v2.856l4.826 1.504C47.509 56.068 47.637 55.499 47.7 55.18zM46.138 57.396l-0.292-0.17-0.293 0.17v0.207h0.585V57.396zM43.201 57.17v-0.339l-0.293-0.17-0.292 0.171v0.338l0.292 0.168L43.201 57.17zM42.876 57.396l-0.292-0.17-0.293 0.17v0.113 0.104l0.585-0.002V57.396zM42.55 57.17v-0.338l-0.293-0.171-0.19 0.11-0.103 0.061v0.338l0.295 0.168L42.55 57.17zM43.527 57.396l-0.284-0.166-0.301 0.166v0.216h0.585V57.396zM42.225 57.396l-0.277-0.158-0.312 0.158v0.223l0.588-0.005V57.396zM44.18 57.396l-0.293-0.17-0.293 0.17v0.216l0.586-0.002V57.396zM30.598 44.956c-0.95 1.363-1.651 2.965-2.032 4.719h0.96L30.598 44.956zM45.158 57.17v-0.338l-0.292-0.171-0.292 0.171v0.338l0.292 0.168L45.158 57.17zM44.507 57.17v-0.339l-0.294-0.17-0.293 0.17v0.339l0.293 0.168L44.507 57.17zM45.484 56.605V56.52l-0.586-0.185v0.271l0.293 0.168L45.484 56.605zM44.834 57.396l-0.292-0.17-0.294 0.17v0.211h0.586V57.396zM32.996 56.643l0.655 0.815c0.076 0.095 0.314 0.17 0.536 0.17h1.192v-1.156h-2.12C33.037 56.472 32.92 56.547 32.996 56.643zM32.996 53.584l0.655 0.816c0.076 0.095 0.314 0.172 0.536 0.172h1.192v-1.157h-2.12C33.037 53.415 32.92 53.49 32.996 53.584zM32.996 55.111l0.655 0.817c0.076 0.093 0.314 0.169 0.536 0.169h1.192v-1.156h-2.12C33.037 54.941 32.92 55.018 32.996 55.111zM32.996 59.698l0.655 0.817c0.076 0.095 0.314 0.168 0.536 0.168h1.192v-1.155h-2.121C33.037 59.528 32.92 59.604 32.996 59.698zM31.53 44.923l-0.172 0.021-0.354 1.566h2.383l-0.866-0.771c-0.104-0.094-0.102-0.214-0.048-0.303L31.53 44.923zM34.27 47.298h-1.011c-0.222 0-0.339 0.076-0.263 0.17l0.655 0.817c0.076 0.094 0.314 0.17 0.536 0.17h1.192v-0.167h0.001L34.27 47.298zM32.996 48.997l0.655 0.816c0.076 0.095 0.314 0.171 0.536 0.171h1.192v-1.158h-2.12C33.037 48.826 32.92 48.903 32.996 48.997zM32.996 52.057l0.655 0.815c0.076 0.094 0.314 0.171 0.536 0.171h1.192v-1.158h-2.12C33.037 51.885 32.92 51.962 32.996 52.057zM35.38 57.999h-2.121c-0.193 0-0.307 0.06-0.281 0.138 0.003 0.012 0.011 0.022 0.019 0.033l0.655 0.816c0.076 0.094 0.314 0.171 0.536 0.171h1.192V57.999zM42.854 40.866l0.562 0.207-0.023-3.025-0.561-0.273L42.854 40.866zM32.996 50.525l0.655 0.816c0.076 0.096 0.314 0.171 0.536 0.171h1.192v-1.157h-2.12C33.037 50.356 32.92 50.432 32.996 50.525zM40.426 39.968l0.562 0.208-0.023-3.303-0.562-0.271L40.426 39.968zM38.46 38.528l0.098 0.113-0.01-0.938-0.162 0.226C38.257 38.104 38.232 38.236 38.46 38.528zM39.192 36.815l0.021 2.458 0.411 0.397 0.15 0.056-0.025-3.374c-0.176-0.017-0.264 0.06-0.349 0.177L39.192 36.815zM41.642 40.417l0.56 0.207L42.18 37.46l-0.563-0.272L41.642 40.417zM45.631 47.182L5.192 27.658v0.409l40.38 19.498L45.631 47.182zM24.842 39.449L23.85 40.19l5.656 3.082 0.902-0.977L24.842 39.449zM24.877 39.251l5.671 2.899 0.633-0.69-10.74-5.172-0.442-0.695-0.733-0.354 4.077 4.674 0.322 0.176 1.113-0.83C24.793 39.245 24.855 39.24 24.877 39.251zM46.234 42.976L1.657 24.766v0.808l44.021 21.257L46.234 42.976zM37.688 49.403l0.297-0.132-4.905-4.372-3.203-1.745-0.198 0.213 3.179 1.732L37.688 49.403z" data-fill-palette-color="accent"></path></svg></g></svg></g></svg></g><defs></defs></svg><rect width="395.52" height="91.71861106458269" fill="none" stroke="none" visibility="hidden"></rect></g></svg></g></svg>